<svg width="14" height="17" viewBox="0 0 14 17" fill="none" xmlns="http://www.w3.org/2000/svg">
<path fill-rule="evenodd" clip-rule="evenodd" d="M10.808 0.814204C13.9242 2.58041 14.9403 6.57644 13.0435 9.77768C10.8532 13.4867 7.78221 11.8971 5.70479 15.4075C4.82414 16.8866 2.92737 17.4386 1.48221 16.6217C0.0370446 15.8048 -0.437149 13.9062 0.443497 12.427C2.52092 8.91666 -0.437149 7.1063 1.75318 3.39727C3.62737 0.21811 7.69189 -0.929921 10.808 0.814204ZM3.60479 13.001C4.30479 13.3984 4.55318 14.2815 4.14673 14.9659C3.74027 15.6503 2.83705 15.8932 2.13705 15.4958C1.43705 15.0984 1.18866 14.2153 1.59511 13.5309C2.00156 12.8465 2.90479 12.6036 3.60479 13.001ZM8.7306 8.21018C7.14995 10.9036 5.09511 12.6257 4.14673 12.0958C3.19834 11.566 3.71769 8.93874 5.29834 6.26735C8.88866 0.151877 12.3435 2.0947 8.7306 8.21018Z" fill="#F5C400"/>
</svg>
